<?xml version="1.0" encoding="UTF-8" standalone="no"?>
<!-- Created with Inkscape (http://www.inkscape.org/) -->

<svg
   version="1.1"
   id="svg1"
   width="867.01331"
   height="180"
   viewBox="0 0 867.01331 180"
   sodipodi:docname="Cirrus-Horizontal-White.eps"
   xmlns:inkscape="http://www.inkscape.org/namespaces/inkscape"
   xmlns:sodipodi="http://sodipodi.sourceforge.net/DTD/sodipodi-0.dtd"
   xmlns="http://www.w3.org/2000/svg"
   xmlns:svg="http://www.w3.org/2000/svg">
  <defs
     id="defs1" />
  <sodipodi:namedview
     id="namedview1"
     pagecolor="#ffffff"
     bordercolor="#000000"
     borderopacity="0.25"
     inkscape:showpageshadow="2"
     inkscape:pageopacity="0.0"
     inkscape:pagecheckerboard="0"
     inkscape:deskcolor="#d1d1d1">
    <inkscape:page
       x="0"
       y="0"
       inkscape:label="1"
       id="page1"
       width="867.01331"
       height="180"
       margin="0"
       bleed="0" />
  </sodipodi:namedview>
  <g
     id="g1"
     inkscape:groupmode="layer"
     inkscape:label="1">
    <g
       id="group-R5">
      <path
         id="path2"
         d="m 5996.36,900.008 h 448.97 V 1035 h -448.98 c -118.05,0 -213.75,-95.699 -213.75,-213.758 0,-118.051 95.7,-213.754 213.75,-213.754 l 292.48,0.024 c 43.5,0 78.77,-35.262 78.77,-78.762 0,-43.5 -35.27,-78.762 -78.77,-78.762 l -479.14,0.02 -84.36,-135.008 563.51,-0.012 c 118.05,0 213.76,95.707 213.76,213.762 0,118.055 -95.71,213.758 -213.76,213.758 l -292.48,-0.028 c -43.5,0 -78.76,35.266 -78.76,78.766 0,43.496 35.26,78.762 78.76,78.762"
         style="fill:#ffffff;fill-opacity:1;fill-rule:nonzero;stroke:none"
         transform="matrix(0.13333333,0,0,-0.13333333,0,180)" />
      <path
         id="path3"
         d="M 5445.06,1035 V 615.602 c 0,-91.457 -74.14,-165.598 -165.6,-165.598 h -118.8 c -91.46,0 -165.6,74.141 -165.6,165.598 v 419.388 l -135,0.01 V 615.602 C 4860.06,449.586 4994.64,315 5160.66,315 h 118.78 c 166.03,0 300.62,134.594 300.62,300.621 v 419.369 l -135,0.01"
         style="fill:#ffffff;fill-opacity:1;fill-rule:nonzero;stroke:none"
         transform="matrix(0.13333333,0,0,-0.13333333,0,180)" />
      <path
         id="path4"
         d="m 4657.52,821.242 c 0.01,118.047 -95.69,213.738 -213.73,213.738 H 3937.53 V 899.984 h 506.26 c 43.49,0 78.74,-35.25 78.74,-78.738 0,-43.484 -35.25,-78.738 -78.74,-78.738 H 3937.53 V 315.012 l 135,-0.012 v 292.508 h 248.41 c 32.28,0 62.28,-16.633 79.38,-44.004 L 4555.6,315.012 h 159.19 l -192.25,307.664 c 79.03,31.375 134.98,108.363 134.98,198.566"
         style="fill:#ffffff;fill-opacity:1;fill-rule:nonzero;stroke:none"
         transform="matrix(0.13333333,0,0,-0.13333333,0,180)" />
      <path
         id="path5"
         d="M 3734.99,821.242 C 3735,939.289 3639.3,1034.98 3521.25,1034.98 H 3015 V 899.984 h 506.26 c 43.49,0 78.74,-35.25 78.74,-78.738 0,-43.484 -35.25,-78.738 -78.74,-78.738 H 3015 V 315.012 L 3150,315 v 292.508 h 248.4 c 32.28,0 62.29,-16.633 79.39,-44.004 l 155.28,-248.492 159.2,-0.024 -192.27,307.7 c 79.03,31.375 134.99,108.351 134.99,198.554"
         style="fill:#ffffff;fill-opacity:1;fill-rule:nonzero;stroke:none"
         transform="matrix(0.13333333,0,0,-0.13333333,0,180)" />
      <path
         id="path6"
         d="m 2778.77,315.012 -135,-0.024 v 720.022 l 135,-0.01 V 315.012"
         style="fill:#ffffff;fill-opacity:1;fill-rule:nonzero;stroke:none"
         transform="matrix(0.13333333,0,0,-0.13333333,0,180)" />
      <path
         id="path7"
         d="m 1988.13,900.008 h 419.39 l 0.01,135.002 h -419.4 c -166.01,0 -300.6,-134.584 -300.6,-300.604 V 615.625 c 0,-166.027 134.6,-300.613 300.62,-300.613 h 419.37 l 0.01,134.996 h -419.4 c -91.45,0 -165.59,74.14 -165.59,165.597 V 734.41 c 0,91.457 74.14,165.598 165.59,165.598"
         style="fill:#ffffff;fill-opacity:1;fill-rule:nonzero;stroke:none"
         transform="matrix(0.13333333,0,0,-0.13333333,0,180)" />
      <path
         id="path8"
         d="m 1346.38,112.941 c 0,4.938 0.41,39.918 0.41,39.918 l -11.94,-39.918 h -8.23 l -11.52,39.098 c 0,0 0,-34.16 0,-39.098 h -8.65 v 50.629 h 11.94 l 12.35,-40.34 11.93,40.34 h 11.53 v -50.629 h -7.82 z m -59.27,43.219 v -43.219 h -9.06 v 43.219 h -14.81 v 7.41 h 38.27 v -7.41 h -14.4"
         style="fill:#ffffff;fill-opacity:1;fill-rule:nonzero;stroke:none"
         transform="matrix(0.13333333,0,0,-0.13333333,0,180)" />
      <path
         id="path9"
         d="m 766.328,1309.5 h 357.702 c 65.27,0 118.18,-52.91 118.18,-118.19 V 580.492 c 0,-1.332 -0.09,-2.64 -0.1,-3.972 l 40.61,-37.829 v 652.619 c 0,87.64 -71.05,158.69 -158.69,158.69 H 574 c -92.805,0 -177.93,-32.66 -244.715,-87 l 105.156,-67.7 c 91.579,71.49 206.707,114.2 331.887,114.2"
         style="fill:#ffffff;fill-opacity:1;fill-rule:nonzero;stroke:none"
         transform="matrix(0.13333333,0,0,-0.13333333,0,180)" />
      <path
         id="path10"
         d="m 702.223,40.5 h -357.7 c -65.269,0 -118.179,52.9102 -118.179,118.18 V 390.063 L 384.902,266.738 296.879,136.332 c -2.582,-3.82 -1.758,-8.992 1.883,-11.832 3.64,-2.828 8.851,-2.352 11.922,1.09 l 104.73,117.422 192.77,-149.9339 c 6.132,-4.7695 14.968,-3.6679 19.738,2.461 l 26.215,33.7109 c 11.144,14.332 10.808,34.48 -0.801,48.43 l -137.77,165.511 238.622,222.438 c 23.238,21.656 58.515,23.945 84.355,5.461 L 1179.24,327.391 C 1088.5,156.738 908.973,40.5 702.223,40.5 Z m 204.332,865.453 c -31.051,24.156 -75.805,18.57 -99.969,-12.476 L 682.918,725.766 c -2.492,-3.379 -7.277,-4.039 -10.59,-1.461 -3.094,2.406 -3.797,6.797 -1.613,10.05 l 127.566,190.106 c 42.586,63.461 117.297,122.599 180.059,73.789 62.76,-48.816 23.83,-135.785 -27.195,-192.68 L 798.285,635.129 c -2.613,-2.918 -7.043,-3.313 -10.137,-0.906 -3.312,2.574 -3.847,7.375 -1.187,10.621 L 919.07,805.988 c 24.141,31.063 18.539,75.817 -12.515,99.965 z M 1485.32,312.949 971.344,791.785 c 81.006,104.145 142.306,217.345 184.526,335.135 17.82,54.05 22.02,94.52 5.85,107.1 -16.17,12.58 -54.37,-1.45 -102.36,-32.03 C 955.586,1132.07 860.953,1044.79 779.953,940.645 L 189.355,1320.91 c -32.847,21.16 -75.304,20.02 -106.9644,-2.87 L 39.0664,1286.72 3.28906,1260.86 c -4.87109,-3.53 -4.214841,-10.97 1.19922,-13.59 l 22.53122,-10.88 c 7.1641,-3.46 13.8672,-7.81 19.9493,-12.94 L 207.262,1088.12 c -13.649,-39.64 -21.418,-82.01 -21.418,-126.276 v -486.41 l 40.5,52.062 v 242.02 c 0,90.422 22.34,175.586 61.629,250.464 L 598.789,757.566 c 24.274,-20.496 30.742,-55.257 15.461,-83.113 L 457.348,388.465 263.016,481.258 c -16.379,7.82 -35.993,3.183 -47.137,-11.145 L 185.844,431.496 V 158.691 C 185.844,71.0508 256.891,0 344.531,0 h 550.032 c 172.127,0 317.867,112.148 368.707,267.281 l 162.59,-116.312 c 6.48,-4.629 12.34,-10.059 17.46,-16.149 l 16.1,-19.16 c 3.87,-4.609 11.24,-3.41 13.46,2.168 l 35.97,90.703 c 14.41,36.328 5.07,77.778 -23.53,104.418"
         style="fill:#ffffff;fill-opacity:1;fill-rule:nonzero;stroke:none"
         transform="matrix(0.13333333,0,0,-0.13333333,0,180)" />
    </g>
  </g>
</svg>
